<?xml version="1.0" encoding="UTF-8"?>
<svg id="b" data-name="Layer 3" xmlns="http://www.w3.org/2000/svg" viewBox="0 0 792 612">
  <defs>
    <style>
      .c {
        fill: none;
        stroke: #000;
        stroke-miterlimit: 10;
      }
    </style>
  </defs>
  <path class="c" d="M303.92,399.86h-33.62v-49.03h33.62v49.03ZM265.15,350.53h-33.62v49.03h33.62v-49.03ZM381.18,350.5h-33.62v49.03h33.62v-49.03ZM342.65,350.71h-33.62v49.03h33.62v-49.03ZM263.12,352.53h-29.56v45.04h29.56v-45.04ZM301.89,352.82h-29.56v45.04h29.56v-45.04ZM379.14,352.5h-29.56v45.04h29.56v-45.04ZM340.61,352.7h-29.56v45.04h29.56v-45.04ZM224.89,365.78h163.33M224.22,345.33h163.78M224,386.44h163.78M388.67,325.33h-164.44v82h164.44v-82ZM247.48,329.08h-15.48v12.52h15.48v-12.52ZM265.48,329.08h-15.48v12.52h15.48v-12.52ZM286.04,329.08h-15.48v12.52h15.48v-12.52ZM304.04,329.08h-15.48v12.52h15.48v-12.52ZM324.56,329.08h-15.48v12.52h15.48v-12.52ZM342.56,329.08h-15.48v12.52h15.48v-12.52ZM362.63,329.08h-15.48v12.52h15.48v-12.52ZM380.63,329.08h-15.48v12.52h15.48v-12.52ZM239.63,329.26v12M232.22,335.11h15.19M257.48,328.67v12.96M249.85,335.19h16M277.85,329.19v12.44M270.52,335.26h15.11M295.93,329.26v12.67M288.67,335.04h15.04M316.37,328.74v13.11M309.19,335.04h15.56M334.37,328.96v12.22M327.56,335.19h14.74M354.96,329.19v11.93M347.26,335.26h15.04M372.67,328.96v12.44M365.63,335.11h14.74M326.74,312.59h-40.81v10.07h40.81v-10.07ZM296.59,312.3v10.89M306.3,311.85v11.04M315.85,312.37v10.67M203.56,312.37l73.63-37.26h58.15l88,44.89.89-8.22-117.78-59.56-117.78,58.89.89,8.44,13.56-6.44v94h21.78M203.56,318.59l77.93-.44v-5.48h4.59M327.11,312.37h4.89l-.15-6.81-51.26-.15.15,7.41h1.78M330.67,311.93v6.67h77.33M407.85,316.37l-77.19.15M281.33,316.52l-77.93.44M296.89,275.78l.15,15.26h19.85v-15.11M311.11,276.22v14.52M300.74,275.48v14.96M301.48,277.85h9.93M300.74,280.67h10.07M300.74,282.44h10.37M301.04,284.96h9.63M300.59,287.93h10.52M296.89,289.85l-1.63.59-.15,1.93h1.04s21.48-.15,21.48-.15v-2.37l-.81-.81M296.15,292.36l-.15,3.86c2.28-.02,20.3.3,20.3.3l.3-4M331.85,305.56,331.85,305.56l.74-1.63h-52.74l.74,1.48M389.04,407.48h18.81v-6.07l-18.37.15M407.85,407.63h70.67v-6.07l-70.07.44,1.19-88.15M475.7,400.52v-42.67M454.81,357.56v43.41M315.7,256.67c54.7-29.5,41.18-22.02,101.48-22.37,0,0,165.63,83.7,165.63,83.7l5.19-6.67-200-100.15-80.44,40.59M424.44,318.59l53.19.74.74-28.15-45.93-23.56-95.41-.15M454.15,358l-1.04-.3c-.07-1.16.13-3.58.3-4.74.36-.15,2.9-.45,3.33-.52v-1.85l3.41-.59,1.26-28.15-2.07-.44.3-1.56M470.73,319.34l.25,1.56-2.09.38.4,28.17,3.39.7-.06,1.85c.45.08,2.95.46,3.32.62.2,1.35.2,4.39.16,5.62M446.89,401.11v-67.44l-30.22.56-.22,67.22M446.67,391.44,476.56,391.78h96v-58M533,318.33l.22,8.56,40.33-.11v7.78l-1.33-.22M492.44,309.78l-.11,1.89c.94,0,41.64.11,42.56.11v-1.89l-42.44-.11ZM493.22,312v6.67l41-.11v-6.78M469.44,326.78l24.72.22v-7.89M460.78,326.67h-50.89M572.56,392.11h10.33l-.11-72.89M573.11,333.56h-4.67v58M546.22,333.67h22.56-22.56ZM481.22,388.89l64.67.22v-55.44M481.44,388.33v-54.78l-11.89-.11M485.11,333.33v51.78l10.78.11.22-51.56-11-.33ZM496.56,345h-11.44M496.22,354.89h-11.44M484.56,364.44s10.56.11,11.22,0M496,374.33h-11.33M531.67,333.89v51.22h10.33v-51.11c.36-.36-10.33-.11-10.33-.11ZM532.11,344.44h10.11M541.89,354.22h-10.56M531.89,364.67h9.78M542,373.78h-10.33M498.11,318.56v66.56h30.78v-66.22M528.67,333.67h-30.56M508.89,318.33v66.56M518.56,318.11v67.22M497.89,325.67h30.67M498.33,344.78h30.44M498.33,354.22h30.56M498.22,364h31M497.89,373.78h31.11M546.22,335.67h22M545.78,340.44h22.78M545.44,345.56h22.67M545.78,351h22.44M545.67,355.89h22.44M545.56,361.11h22.56M568.48,366.22c-1.67,0-21.41,0-22.81,0M545.56,371.56h23M546,376.56h22.44M545.89,381.78h22.22M545.78,386.78h22.33M457.11,351.19l15.04-.37M453.78,353.41l21.93.15M455.78,357.78l19.19.22M419.7,367.56l.15,29.93,11.33-.15v-29.78h-11.48ZM419.48,369.19,429.78,397.48v-28.22l-10.3-.07M443.7,397.04v-29.33h-11.04v29.33h11.04ZM442.52,396.59l.07-27.04-10-.07M419.85,337.33v20.67h23.93v-21.26c-5.41-.05-18.68-.17-23.93-.22v.81ZM442.52,337.93c-4.53.11-16.83.41-21.19.52l-.15,18.15,21.11-.22.22-18.44ZM428.44,338.3l.15,18.07M434.67,356.44l.3-18.74M421.11,347.26l21.78.15M445.26,359.41h-26.52v2.81l26.3-.07.22-2.74ZM419.63,360.89v4.37h1.78v-4.37s-1.78-.22-1.78,0ZM430.52,360.89v4.37h2.52v-4.37s-2.74,0-2.52,0ZM441.63,360.96v4.22h2.15v-4.22h-2.15ZM378.15,234.81v14.96h19.41v-15.04M393.56,235.04v14.37M382.89,234.44v15.04M378.15,249.56h-1.41v1.85l1.33-.07v4.44h20.52v-4.37h-20.67M398.67,250.96h.81v-1.33h-1.63M384.44,234.44v14.07h7.41v-14M391.7,235.56h-7.11M391.7,236.74c.13-.04-7.04-.11-7.26-.07M391.63,238.74h-7.33M391.63,241.04h-7.33M391.93,242.22h-7.26M391.78,243.63h-6.96M391.63,245.26h-6.96M391.48,246.37h-7.11M391.19,247.48h-6.37"/>
</svg>